<!-- Generated by IcoMoon.io -->
<svg version="1.1" xmlns="http://www.w3.org/2000/svg" width="1024" height="1024" viewBox="0 0 1024 1024">
<title></title>
<g id="icomoon-ignore">
</g>
<path d="M985.966 48.762h-946.469c-21.814 0-39.497 17.683-39.497 39.497s17.683 39.497 39.497 39.497h946.469c21.814 0 39.497-17.683 39.497-39.497s-17.683-39.497-39.497-39.497zM985.966 482.743h-946.469c-21.814 0-39.497 17.683-39.497 39.497s17.683 39.497 39.497 39.497h946.469c21.814 0 39.497-17.683 39.497-39.497s-17.683-39.497-39.497-39.497zM985.966 916.236h-946.469c-21.814 0-39.497 17.683-39.497 39.497s17.683 39.497 39.497 39.497h946.469c21.814 0 39.497-17.683 39.497-39.497s-17.683-39.497-39.497-39.497z"></path>
</svg>
