<?xml version="1.0" encoding="utf-8"?>
<!-- Generator: Adobe Illustrator 21.1.0, SVG Export Plug-In . SVG Version: 6.00 Build 0)  -->
<svg version="1.1" id="Layer_1" xmlns="http://www.w3.org/2000/svg" xmlns:xlink="http://www.w3.org/1999/xlink" x="0px" y="0px"
	 viewBox="0 0 197.4 35.4" style="enable-background:new 0 0 197.4 35.4;" xml:space="preserve">
<style type="text/css">
	.st0{fill-rule:evenodd;clip-rule:evenodd;fill:#1547DF;}
	.st1{fill-rule:evenodd;clip-rule:evenodd;fill:#262E36;}
	.st2{fill:#262E36;}
</style>
<g>
	<g>
		<g>
			<defs>
				<path id="SVGID_1_" d="M12,25.1h-4c-0.8,0-1.3-0.1-1.6-0.4C6.1,24.5,6,23.9,6,23.2v-22H0v24.1C0,29.1,2.1,31,6.2,31h11.8V1.2h-6
					L12,25.1z"/>
			</defs>
			<use xlink:href="#SVGID_1_"  style="overflow:visible;fill-rule:evenodd;clip-rule:evenodd;fill:#1547DF;"/>
			<clipPath id="SVGID_2_">
				<use xlink:href="#SVGID_1_"  style="overflow:visible;"/>
			</clipPath>
		</g>
		<g>
			<defs>
				<path id="SVGID_3_" d="M47.6,1.2H35.8V31h6l0-11.9h4.1c0.8,0,1.3,0.1,1.5,0.4c0.2,0.3,0.4,0.8,0.4,1.6v10h6v-9.3
					c0-2.9-1-4.8-3-5.7c2-0.8,3-2.7,3-5.7V6.9C53.8,3.1,51.7,1.2,47.6,1.2z M47.8,11.2c0,0.8-0.1,1.3-0.4,1.6
					c-0.2,0.3-0.8,0.4-1.5,0.4h-4.1l0-6h4c0.8,0,1.3,0.1,1.6,0.4c0.3,0.2,0.4,0.8,0.4,1.5L47.8,11.2z"/>
			</defs>
			<use xlink:href="#SVGID_3_"  style="overflow:visible;fill-rule:evenodd;clip-rule:evenodd;fill:#1547DF;"/>
			<clipPath id="SVGID_4_">
				<use xlink:href="#SVGID_3_"  style="overflow:visible;"/>
			</clipPath>
		</g>
		<g>
			<g>
				<rect x="23.9" y="1.2" class="st0" width="6" height="11.9"/>
				<rect x="23.9" y="19.1" class="st0" width="6" height="11.9"/>
			</g>
		</g>
	</g>
	<g>
		<path class="st1" d="M68.6,1.2v9.1c0,1.4-0.4,2.4-1.2,3.2c-0.8,0.8-1.8,1.1-3.2,1.1c-1.4,0-2.5-0.4-3.2-1.1
			c-0.7-0.7-1.1-1.8-1.1-3.2V1.2h1.8v9c0,1,0.2,1.7,0.6,2.2c0.4,0.5,1.1,0.7,2,0.7c0.9,0,1.6-0.2,2-0.7c0.4-0.5,0.6-1.2,0.6-2.2v-9
			H68.6z"/>
		<path class="st1" d="M73,3.7l0,1.2c0.7-0.9,1.6-1.4,2.6-1.4c1.9,0,2.9,1.3,2.9,3.8v7.2h-1.8V7.5c0-0.8-0.1-1.4-0.4-1.8
			c-0.3-0.4-0.7-0.5-1.3-0.5c-0.4,0-0.8,0.1-1.2,0.4c-0.3,0.3-0.6,0.7-0.8,1.1v7.8h-1.8V3.7H73z"/>
		<polygon class="st1" points="88.5,11.7 90.5,3.7 92.3,3.7 89.1,14.4 87.8,14.4 84.6,3.7 86.4,3.7 		"/>
		<path class="st1" d="M97.7,14.6c-1.3,0-2.3-0.4-3-1.2c-0.7-0.8-1.1-1.9-1.1-3.5V8.6c0-1.6,0.3-2.8,1-3.7c0.7-0.9,1.7-1.4,2.9-1.4
			c1.2,0,2.2,0.4,2.8,1.2c0.6,0.8,0.9,2,0.9,3.7v1.1h-5.9v0.2c0,1.1,0.2,2,0.6,2.5c0.4,0.5,1,0.8,1.9,0.8c0.5,0,1-0.1,1.4-0.3
			c0.4-0.2,0.8-0.5,1.1-0.9l0.9,1.1C100.4,14,99.3,14.6,97.7,14.6 M97.5,5c-0.7,0-1.3,0.2-1.6,0.7c-0.3,0.5-0.5,1.3-0.6,2.3h4.2V7.8
			c0-1-0.2-1.7-0.5-2.2C98.7,5.3,98.2,5,97.5,5"/>
		<path class="st1" d="M107.8,5.4c-0.2,0-0.5-0.1-0.8-0.1c-0.9,0-1.5,0.5-1.9,1.5v7.6h-1.7V3.7h1.7l0,1.1c0.5-0.9,1.1-1.3,2-1.3
			c0.3,0,0.5,0,0.7,0.1L107.8,5.4z"/>
		<path class="st1" d="M114.6,11.6c0-0.4-0.1-0.7-0.4-1c-0.3-0.3-0.8-0.6-1.6-0.9c-0.9-0.4-1.6-0.7-2-1c-0.4-0.3-0.7-0.6-0.9-0.9
			c-0.2-0.4-0.3-0.8-0.3-1.3c0-0.9,0.3-1.6,0.9-2.2c0.6-0.6,1.4-0.9,2.4-0.9c1,0,1.9,0.3,2.5,0.9c0.6,0.6,0.9,1.4,0.9,2.3h-1.7
			c0-0.5-0.2-0.9-0.5-1.2c-0.3-0.3-0.7-0.5-1.2-0.5c-0.5,0-0.9,0.1-1.2,0.4c-0.3,0.3-0.4,0.6-0.4,1.1c0,0.4,0.1,0.6,0.3,0.9
			c0.2,0.2,0.7,0.5,1.5,0.9c1.3,0.5,2.2,1,2.6,1.5c0.5,0.5,0.7,1.1,0.7,1.8c0,0.9-0.3,1.7-1,2.2c-0.6,0.6-1.5,0.8-2.6,0.8
			c-1.1,0-2-0.3-2.7-1c-0.7-0.6-1-1.4-1-2.4h1.7c0,0.6,0.2,1.1,0.5,1.4c0.3,0.3,0.8,0.5,1.4,0.5c0.6,0,1-0.1,1.3-0.4
			C114.5,12.4,114.6,12.1,114.6,11.6"/>
		<path class="st1" d="M125.5,1.2v2.6h1.6v1.4h-1.6v6.6c0,0.4,0.1,0.7,0.2,1c0.1,0.2,0.4,0.3,0.7,0.3c0.2,0,0.5,0,0.7-0.1l0,1.5
			c-0.4,0.1-0.8,0.2-1.2,0.2c-0.7,0-1.2-0.2-1.6-0.7c-0.4-0.5-0.5-1.2-0.5-2.1V5.1h-1.6V3.7h1.6V1.2H125.5z"/>
		<path class="st1" d="M133,14.6c-1.3,0-2.3-0.4-3-1.2c-0.7-0.8-1.1-1.9-1.1-3.5V8.6c0-1.6,0.3-2.8,1-3.7c0.7-0.9,1.7-1.4,2.9-1.4
			c1.2,0,2.2,0.4,2.8,1.2c0.6,0.8,0.9,2,0.9,3.7v1.1h-5.9v0.2c0,1.1,0.2,2,0.6,2.5c0.4,0.5,1,0.8,1.9,0.8c0.5,0,1-0.1,1.4-0.3
			c0.4-0.2,0.8-0.5,1.1-0.9l0.9,1.1C135.7,14,134.5,14.6,133,14.6 M132.8,5c-0.7,0-1.3,0.2-1.6,0.7c-0.3,0.5-0.5,1.3-0.6,2.3h4.2
			V7.8c0-1-0.2-1.7-0.5-2.2C133.9,5.3,133.4,5,132.8,5"/>
		<path class="st1" d="M140.9,1.2v2.6h1.6v1.4h-1.6v6.6c0,0.4,0.1,0.7,0.2,1c0.1,0.2,0.4,0.3,0.7,0.3c0.2,0,0.5,0,0.7-0.1l0,1.5
			c-0.4,0.1-0.8,0.2-1.2,0.2c-0.7,0-1.2-0.2-1.6-0.7c-0.4-0.5-0.5-1.2-0.5-2.1V5.1h-1.6V3.7h1.6V1.2H140.9z"/>
		<path class="st1" d="M149.7,11.6c0-0.4-0.1-0.7-0.4-1c-0.3-0.3-0.8-0.6-1.6-0.9c-0.9-0.4-1.6-0.7-2-1c-0.4-0.3-0.7-0.6-0.9-0.9
			c-0.2-0.4-0.3-0.8-0.3-1.3c0-0.9,0.3-1.6,0.9-2.2c0.6-0.6,1.4-0.9,2.4-0.9c1,0,1.9,0.3,2.5,0.9c0.6,0.6,0.9,1.4,0.9,2.3h-1.7
			c0-0.5-0.2-0.9-0.5-1.2c-0.3-0.3-0.7-0.5-1.2-0.5c-0.5,0-0.9,0.1-1.2,0.4c-0.3,0.3-0.4,0.6-0.4,1.1c0,0.4,0.1,0.6,0.3,0.9
			c0.2,0.2,0.7,0.5,1.5,0.9c1.3,0.5,2.2,1,2.6,1.5c0.5,0.5,0.7,1.1,0.7,1.8c0,0.9-0.3,1.7-1,2.2c-0.6,0.6-1.5,0.8-2.6,0.8
			c-1.1,0-2-0.3-2.7-1c-0.7-0.6-1-1.4-1-2.4h1.7c0,0.6,0.2,1.1,0.5,1.4c0.3,0.3,0.8,0.5,1.4,0.5c0.6,0,1-0.1,1.3-0.4
			C149.6,12.4,149.7,12.1,149.7,11.6"/>
		<rect x="152.9" y="8.3" class="st1" width="4.1" height="1.5"/>
		<path class="st1" d="M59.5,25.1c0-1.6,0.4-2.8,1.1-3.7c0.8-0.9,1.8-1.4,3-1.4c1.3,0,2.3,0.4,3,1.3c0.8,0.9,1.2,2.1,1.2,3.6v1.1
			c0,1.6-0.4,2.8-1.1,3.7c-0.8,0.9-1.8,1.4-3,1.4c-1.3,0-2.3-0.4-3-1.3c-0.8-0.9-1.1-2.1-1.2-3.6V25.1z M61.2,26.1
			c0,1.1,0.2,2,0.7,2.6c0.4,0.6,1,1,1.8,1c1.6,0,2.4-1.1,2.4-3.4v-1.2c0-1.1-0.2-2-0.7-2.6c-0.4-0.6-1-1-1.8-1c-0.7,0-1.3,0.3-1.7,1
			c-0.4,0.6-0.7,1.5-0.7,2.6V26.1z"/>
		<path class="st1" d="M69.8,25.1c0-1.7,0.3-3,0.9-3.8c0.6-0.9,1.5-1.3,2.7-1.3c1.1,0,1.9,0.5,2.5,1.4l0.1-1.2h1.6v10.9
			c0,1.3-0.3,2.4-1,3.1c-0.7,0.7-1.6,1.1-2.9,1.1c-0.5,0-1.1-0.1-1.8-0.4c-0.7-0.3-1.2-0.6-1.5-1l0.7-1.2c0.7,0.7,1.5,1.1,2.4,1.1
			c1.5,0,2.2-0.8,2.3-2.4V30c-0.6,0.8-1.4,1.3-2.4,1.3c-1.1,0-2-0.4-2.6-1.3c-0.6-0.8-1-2.1-1-3.6V25.1z M71.5,26.1
			c0,1.2,0.2,2.1,0.5,2.7c0.4,0.6,0.9,0.9,1.8,0.9c0.9,0,1.5-0.4,2-1.3v-5.4c-0.5-0.9-1.1-1.3-2-1.3c-0.8,0-1.4,0.3-1.8,0.9
			c-0.4,0.6-0.5,1.4-0.5,2.6V26.1z"/>
		<path class="st1" d="M86.6,21.3c0.7-0.9,1.5-1.3,2.6-1.3c1.9,0,2.9,1.3,2.9,3.8V31h-1.8v-7.1c0-0.8-0.1-1.4-0.4-1.8
			c-0.3-0.4-0.7-0.5-1.3-0.5c-0.4,0-0.8,0.1-1.2,0.4c-0.3,0.3-0.6,0.7-0.8,1.1V31h-1.8V17.6h1.8V21.3z"/>
		<path class="st1" d="M94.4,25.5c0-1.6,0.4-3,1.1-4c0.8-1,1.8-1.5,3-1.5c0.6,0,1.2,0.1,1.7,0.4l0.6-1.4h1.1l-0.9,2.1
			c1.1,1,1.6,2.6,1.6,4.7c0,1.6-0.4,2.9-1.1,4c-0.8,1-1.8,1.5-3,1.5c-0.5,0-1.1-0.1-1.6-0.3l-0.6,1.5h-1.1l0.8-2
			C95,29.3,94.4,27.7,94.4,25.5 M96.2,25.7c0,1.2,0.2,2.2,0.6,2.9l2.8-6.8c-0.3-0.2-0.7-0.3-1.1-0.3c-0.7,0-1.3,0.4-1.7,1.1
			C96.4,23.3,96.2,24.4,96.2,25.7 M100.9,25.5c0-1.1-0.2-2-0.6-2.8l-2.8,6.7c0.3,0.2,0.6,0.2,1,0.2c0.7,0,1.3-0.4,1.7-1.1
			C100.7,27.9,100.9,26.9,100.9,25.5"/>
		<path class="st1" d="M104.6,25.1c0-1.7,0.3-3,0.9-3.8c0.6-0.9,1.5-1.3,2.7-1.3c1.1,0,1.9,0.5,2.5,1.4l0.1-1.2h1.6v10.9
			c0,1.3-0.3,2.4-1,3.1c-0.7,0.7-1.6,1.1-2.9,1.1c-0.5,0-1.1-0.1-1.8-0.4c-0.7-0.3-1.2-0.6-1.5-1l0.7-1.2c0.7,0.7,1.5,1.1,2.4,1.1
			c1.5,0,2.2-0.8,2.3-2.4V30c-0.6,0.8-1.4,1.3-2.4,1.3c-1.1,0-2-0.4-2.6-1.3c-0.6-0.8-1-2.1-1-3.6V25.1z M106.4,26.1
			c0,1.2,0.2,2.1,0.5,2.7s0.9,0.9,1.8,0.9c0.9,0,1.5-0.4,2-1.3v-5.4c-0.5-0.9-1.1-1.3-2-1.3c-0.8,0-1.4,0.3-1.8,0.9
			c-0.4,0.6-0.5,1.4-0.5,2.6V26.1z"/>
		<path class="st1" d="M120.3,28.3c0-0.4-0.1-0.7-0.4-1c-0.3-0.3-0.8-0.6-1.7-1c-1-0.4-1.6-0.7-2-1c-0.4-0.3-0.7-0.6-0.9-1
			c-0.2-0.4-0.3-0.8-0.3-1.3c0-0.9,0.3-1.6,1-2.2c0.6-0.6,1.5-0.9,2.5-0.9c1.1,0,1.9,0.3,2.5,0.9c0.6,0.6,1,1.4,1,2.4h-1.8
			c0-0.5-0.2-0.9-0.5-1.2c-0.3-0.3-0.7-0.5-1.2-0.5c-0.5,0-0.9,0.1-1.2,0.4c-0.3,0.3-0.4,0.6-0.4,1.1c0,0.4,0.1,0.6,0.3,0.9
			c0.2,0.2,0.7,0.5,1.6,0.9c1.3,0.5,2.2,1,2.7,1.5c0.5,0.5,0.7,1.1,0.7,1.9c0,0.9-0.3,1.7-1,2.3c-0.6,0.6-1.5,0.8-2.6,0.8
			c-1.1,0-2-0.3-2.7-1c-0.7-0.6-1-1.5-1-2.5h1.8c0,0.6,0.2,1.1,0.5,1.4c0.3,0.3,0.8,0.5,1.5,0.5c0.6,0,1-0.1,1.3-0.4
			C120.1,29.1,120.3,28.7,120.3,28.3"/>
		<polygon class="st1" points="127,26.1 126.1,27.2 126.1,31 124.3,31 124.3,17.6 126.1,17.6 126.1,24.9 129.5,20.2 131.6,20.2 
			128.2,24.7 132,31 130,31 		"/>
		<path class="st1" d="M133.2,25.1c0-1.6,0.4-2.8,1.1-3.7c0.8-0.9,1.8-1.4,3-1.4s2.3,0.4,3,1.3c0.8,0.9,1.2,2.1,1.2,3.6v1.1
			c0,1.6-0.4,2.8-1.1,3.7c-0.8,0.9-1.8,1.4-3,1.4c-1.3,0-2.3-0.4-3-1.3c-0.8-0.9-1.1-2.1-1.2-3.6V25.1z M134.9,26.1
			c0,1.1,0.2,2,0.7,2.6c0.4,0.6,1,1,1.8,1c1.6,0,2.4-1.1,2.4-3.4v-1.2c0-1.1-0.2-2-0.7-2.6c-0.4-0.6-1-1-1.8-1c-0.7,0-1.3,0.3-1.7,1
			c-0.4,0.6-0.7,1.5-0.7,2.6V26.1z"/>
		<rect x="144" y="17.6" class="st1" width="1.8" height="13.4"/>
		<path class="st1" d="M152.4,31.2c-1.3,0-2.4-0.4-3.1-1.2c-0.7-0.8-1.1-2-1.1-3.5v-1.3c0-1.6,0.4-2.9,1.1-3.8
			c0.7-0.9,1.7-1.4,2.9-1.4c1.3,0,2.2,0.4,2.8,1.2c0.6,0.8,0.9,2.1,1,3.8v1.2h-6v0.2c0,1.2,0.2,2,0.7,2.5c0.4,0.5,1.1,0.8,1.9,0.8
			c0.5,0,1-0.1,1.4-0.3c0.4-0.2,0.8-0.5,1.1-0.9l0.9,1.1C155.1,30.7,153.9,31.2,152.4,31.2 M152.2,21.5c-0.7,0-1.3,0.3-1.6,0.8
			c-0.4,0.5-0.6,1.3-0.6,2.3h4.3v-0.2c0-1-0.2-1.8-0.6-2.2C153.3,21.8,152.8,21.5,152.2,21.5"/>
		<path class="st1" d="M162.5,21.9c-0.2,0-0.5-0.1-0.8-0.1c-0.9,0-1.5,0.5-1.9,1.5V31h-1.8V20.2h1.7l0,1.1c0.5-0.9,1.1-1.3,2-1.3
			c0.3,0,0.5,0,0.7,0.1L162.5,21.9z"/>
		<path class="st1" d="M169.5,31c-0.1-0.2-0.2-0.6-0.2-1.2c-0.6,0.9-1.4,1.4-2.4,1.4c-1,0-1.7-0.3-2.3-0.8c-0.5-0.5-0.8-1.3-0.8-2.3
			c0-1.1,0.4-2,1.1-2.6c0.7-0.6,1.8-1,3.1-1h1.3v-1.1c0-0.6-0.1-1.1-0.4-1.4c-0.3-0.3-0.7-0.4-1.3-0.4c-0.5,0-1,0.2-1.3,0.5
			c-0.3,0.3-0.5,0.7-0.5,1.2h-1.8c0-0.6,0.2-1.1,0.5-1.6c0.3-0.5,0.8-0.9,1.3-1.2c0.6-0.3,1.2-0.4,1.8-0.4c1.1,0,1.9,0.3,2.5,0.8
			c0.6,0.5,0.9,1.3,0.9,2.4v5.5c0,0.8,0.1,1.6,0.3,2.2V31H169.5z M167.1,29.6c0.4,0,0.8-0.1,1.2-0.4c0.4-0.2,0.7-0.5,0.9-0.9v-2.6
			h-1c-0.8,0-1.5,0.2-2,0.6c-0.5,0.4-0.7,0.9-0.7,1.5c0,0.6,0.1,1.1,0.4,1.3C166.1,29.5,166.5,29.6,167.1,29.6z M169.8,16.9
			c0,0.6-0.2,1.1-0.6,1.5c-0.4,0.4-0.9,0.6-1.5,0.6c-0.6,0-1.1-0.2-1.5-0.6c-0.4-0.4-0.6-0.9-0.6-1.4c0-0.6,0.2-1.1,0.6-1.5
			c0.4-0.4,0.9-0.6,1.5-0.6c0.6,0,1.1,0.2,1.5,0.6C169.6,15.8,169.8,16.3,169.8,16.9z M166.5,16.9c0,0.3,0.1,0.6,0.3,0.8
			c0.2,0.2,0.5,0.3,0.8,0.3c0.3,0,0.6-0.1,0.8-0.3c0.2-0.2,0.3-0.5,0.3-0.8c0-0.3-0.1-0.6-0.3-0.8c-0.2-0.2-0.5-0.3-0.8-0.3
			c-0.3,0-0.6,0.1-0.8,0.3C166.6,16.3,166.5,16.5,166.5,16.9z"/>
		<path class="st1" d="M173.3,25.1c0-1.7,0.3-2.9,0.9-3.8c0.6-0.9,1.5-1.3,2.7-1.3c1,0,1.8,0.4,2.4,1.3v-3.7h1.8V31h-1.6l-0.1-1.2
			c-0.6,0.9-1.4,1.4-2.5,1.4c-1.1,0-2-0.4-2.6-1.3c-0.6-0.9-1-2.1-1-3.7V25.1z M175.1,26.1c0,1.2,0.2,2.1,0.5,2.7
			c0.4,0.6,0.9,0.9,1.8,0.9c0.9,0,1.5-0.4,2-1.3v-5.4c-0.5-0.9-1.1-1.3-2-1.3c-0.8,0-1.4,0.3-1.8,0.9c-0.4,0.6-0.5,1.4-0.5,2.6V26.1
			z"/>
		<path class="st1" d="M187.7,31.2c-1.3,0-2.4-0.4-3.1-1.2c-0.7-0.8-1.1-2-1.1-3.5v-1.3c0-1.6,0.4-2.9,1.1-3.8
			c0.7-0.9,1.7-1.4,2.9-1.4c1.3,0,2.2,0.4,2.8,1.2c0.6,0.8,0.9,2.1,1,3.8v1.2h-6v0.2c0,1.2,0.2,2,0.7,2.5c0.4,0.5,1.1,0.8,1.9,0.8
			c0.5,0,1-0.1,1.4-0.3c0.4-0.2,0.8-0.5,1.1-0.9l0.9,1.1C190.4,30.7,189.3,31.2,187.7,31.2 M187.5,21.5c-0.7,0-1.3,0.3-1.6,0.8
			c-0.4,0.5-0.6,1.3-0.6,2.3h4.3v-0.2c0-1-0.2-1.8-0.6-2.2C188.6,21.8,188.2,21.5,187.5,21.5"/>
		<path class="st1" d="M195.7,17.6v2.6h1.6v1.4h-1.6v6.7c0,0.4,0.1,0.7,0.2,1c0.1,0.2,0.4,0.3,0.7,0.3c0.2,0,0.5,0,0.7-0.1l0,1.5
			c-0.4,0.1-0.8,0.2-1.2,0.2c-0.7,0-1.2-0.2-1.6-0.7c-0.4-0.5-0.5-1.2-0.5-2.1v-6.7h-1.6v-1.4h1.6v-2.6H195.7z"/>
		<path class="st2" d="M82.8,2.2c0,0.3-0.1,0.5-0.2,0.7c-0.2,0.2-0.4,0.3-0.7,0.3c-0.3,0-0.6-0.1-0.7-0.3c-0.2-0.2-0.2-0.4-0.2-0.7
			s0.1-0.5,0.2-0.7c0.2-0.2,0.4-0.3,0.7-0.3c0.3,0,0.6,0.1,0.7,0.3C82.8,1.7,82.8,1.9,82.8,2.2z M82.7,14.6H81V4.3h1.7V14.6z"/>
		<path class="st2" d="M120.6,2.2c0,0.3-0.1,0.5-0.2,0.7s-0.4,0.3-0.7,0.3c-0.3,0-0.6-0.1-0.7-0.3c-0.2-0.2-0.2-0.4-0.2-0.7
			s0.1-0.5,0.2-0.7c0.2-0.2,0.4-0.3,0.7-0.3c0.3,0,0.6,0.1,0.7,0.3C120.5,1.7,120.6,1.9,120.6,2.2z M120.5,14.6h-1.7V4.4h1.7V14.6z"
			/>
	</g>
</g>
</svg>
