<?xml version="1.0" encoding="utf-8"?>
<!-- Generator: Adobe Illustrator 21.1.0, SVG Export Plug-In . SVG Version: 6.00 Build 0)  -->
<svg version="1.1" id="Layer_1" xmlns="http://www.w3.org/2000/svg" xmlns:xlink="http://www.w3.org/1999/xlink" x="0px" y="0px"
	 viewBox="0 0 53.8 29.9" style="enable-background:new 0 0 53.8 29.9;" xml:space="preserve">
<style type="text/css">
	.st0{fill-rule:evenodd;clip-rule:evenodd;fill:#1547DF;}
</style>
<g>
	<g>
		<g>
			<defs>
				<path id="SVGID_1_" d="M12,23.9h-4c-0.8,0-1.3-0.1-1.6-0.4C6.1,23.3,6,22.8,6,22V0H0v24.1c0,3.8,2.1,5.8,6.2,5.8h11.8V0h-6
					L12,23.9z"/>
			</defs>
			<use xlink:href="#SVGID_1_"  style="overflow:visible;fill-rule:evenodd;clip-rule:evenodd;fill:#1547DF;"/>
			<clipPath id="SVGID_2_">
				<use xlink:href="#SVGID_1_"  style="overflow:visible;"/>
			</clipPath>
		</g>
		<g>
			<defs>
				<path id="SVGID_3_" d="M47.6,0H35.8v29.9h6l0-11.9h4.1c0.8,0,1.3,0.1,1.5,0.4c0.2,0.3,0.4,0.8,0.4,1.6v10h6v-9.3
					c0-2.9-1-4.8-3-5.7c2-0.8,3-2.7,3-5.7V5.8C53.8,1.9,51.7,0,47.6,0z M47.8,10c0,0.8-0.1,1.3-0.4,1.6c-0.2,0.3-0.8,0.4-1.5,0.4
					h-4.1l0-6h4c0.8,0,1.3,0.1,1.6,0.4c0.3,0.2,0.4,0.8,0.4,1.5L47.8,10z"/>
			</defs>
			<use xlink:href="#SVGID_3_"  style="overflow:visible;fill-rule:evenodd;clip-rule:evenodd;fill:#1547DF;"/>
			<clipPath id="SVGID_4_">
				<use xlink:href="#SVGID_3_"  style="overflow:visible;"/>
			</clipPath>
		</g>
		<g>
			<g>
				<rect x="23.9" y="0" class="st0" width="6" height="11.9"/>
				<rect x="23.9" y="17.9" class="st0" width="6" height="11.9"/>
			</g>
		</g>
	</g>
</g>
</svg>
